<svg width="90" height="21" viewBox="0 0 90 21" fill="none" xmlns="http://www.w3.org/2000/svg">
<path d="M11.3257 9.30468L9.29879 9.87416C9.17129 9.53881 8.98329 9.21293 8.73471 8.89655C8.49248 8.57388 8.16106 8.30809 7.74037 8.09932C7.31971 7.8905 6.78114 7.78607 6.1246 7.78607C5.22591 7.78607 4.47698 7.99172 3.87783 8.40301C3.28507 8.80797 2.98869 9.32365 2.98869 9.9501C2.98869 10.5069 3.19265 10.9466 3.60058 11.2694C4.00852 11.5921 4.64591 11.861 5.51272 12.0761L7.6926 12.6076C9.0056 12.924 9.98398 13.408 10.6277 14.0598C11.2715 14.7052 11.5934 15.5373 11.5934 16.556C11.5934 17.3912 11.3512 18.1379 10.8668 18.7959C10.3887 19.454 9.71945 19.9728 8.85898 20.3525C7.99852 20.7321 6.99783 20.922 5.85691 20.922C4.35906 20.922 3.11935 20.5992 2.13778 19.9538C1.15621 19.3084 0.534765 18.3656 0.273438 17.1255L2.41505 16.5939C2.61901 17.3786 3.00463 17.967 3.5719 18.3593C4.14556 18.7516 4.89448 18.9478 5.81868 18.9478C6.87037 18.9478 7.70533 18.7263 8.3236 18.2834C8.94821 17.8341 9.26056 17.2963 9.26056 16.6699C9.26056 16.1637 9.08206 15.7397 8.72514 15.398C8.36821 15.05 7.82006 14.7906 7.08068 14.6198L4.63314 14.0503C3.28826 13.7339 2.30032 13.2436 1.66931 12.5792C1.04467 11.9085 0.732353 11.0701 0.732353 10.064C0.732353 9.24141 0.964999 8.51374 1.43029 7.88099C1.90195 7.24824 2.54252 6.75154 3.352 6.39087C4.16787 6.03021 5.09206 5.84987 6.1246 5.84987C7.57787 5.84987 8.71875 6.16625 9.54737 6.799C10.3823 7.43175 10.9751 8.26697 11.3257 9.30468ZM21.4942 20.922C20.1684 20.922 19.0052 20.6087 18.0045 19.9823C17.0102 19.3559 16.2326 18.4795 15.6717 17.3533C15.1172 16.227 14.8399 14.9108 14.8399 13.4049C14.8399 11.8863 15.1172 10.5607 15.6717 9.42808C16.2326 8.29546 17.0102 7.41594 18.0045 6.78953C19.0052 6.16308 20.1684 5.84987 21.4942 5.84987C22.8199 5.84987 23.98 6.16308 24.9743 6.78953C25.975 7.41594 26.7526 8.29546 27.3071 9.42808C27.868 10.5607 28.1485 11.8863 28.1485 13.4049C28.1485 14.9108 27.868 16.227 27.3071 17.3533C26.7526 18.4795 25.975 19.3559 24.9743 19.9823C23.98 20.6087 22.8199 20.922 21.4942 20.922ZM21.4942 18.9098C22.5013 18.9098 23.3299 18.6535 23.98 18.141C24.6301 17.6285 25.1113 16.9546 25.4237 16.1194C25.736 15.2841 25.8921 14.3793 25.8921 13.4049C25.8921 12.4305 25.736 11.5225 25.4237 10.6809C25.1113 9.83934 24.6301 9.15917 23.98 8.64031C23.3299 8.12146 22.5013 7.86202 21.4942 7.86202C20.4871 7.86202 19.6585 8.12146 19.0084 8.64031C18.3583 9.15917 17.8771 9.83934 17.5647 10.6809C17.2524 11.5225 17.0963 12.4305 17.0963 13.4049C17.0963 14.3793 17.2524 15.2841 17.5647 16.1194C17.8771 16.9546 18.3583 17.6285 19.0084 18.141C19.6585 18.6535 20.4871 18.9098 21.4942 18.9098ZM38.6706 6.03971V7.93796H30.7544V6.03971H38.6706ZM33.1255 20.6182V4.02757C33.1255 3.19234 33.3231 2.49632 33.7183 1.9395C34.1134 1.38268 34.6266 0.965066 35.2576 0.686656C35.8886 0.408249 36.5546 0.269043 37.2558 0.269043C37.8103 0.269043 38.2628 0.313336 38.6133 0.401923C38.9641 0.490504 39.2252 0.572763 39.3975 0.648692L38.7471 2.5849C38.6325 2.54694 38.4733 2.49948 38.2692 2.44253C38.0716 2.38559 37.8103 2.35711 37.4852 2.35711C36.7395 2.35711 36.2009 2.54377 35.8694 2.91709C35.5444 3.29042 35.3819 3.83773 35.3819 4.55906V20.6182H33.1255ZM48.7579 6.03971V7.93796H41.1475V6.03971H48.7579ZM43.3656 2.54694H45.6221V16.4421C45.6221 17.0748 45.7144 17.5494 45.8994 17.8658C46.0906 18.1758 46.3329 18.3846 46.626 18.4922C46.9256 18.5934 47.241 18.644 47.5725 18.644C47.821 18.644 48.0252 18.6314 48.1844 18.6061C48.3437 18.5745 48.4714 18.5491 48.5668 18.5301L49.0256 20.5423C48.8729 20.5992 48.6591 20.6562 48.3852 20.7131C48.111 20.7764 47.7637 20.8081 47.3429 20.8081C46.7056 20.8081 46.081 20.672 45.4691 20.3999C44.8637 20.1279 44.3602 19.7134 43.9587 19.1566C43.5633 18.5997 43.3656 17.8974 43.3656 17.0495V2.54694ZM55.8648 1.1802V20.6182H52.4037V1.1802H55.8648ZM64.1879 20.9124C63.2575 20.9124 62.4194 20.7479 61.6737 20.4189C60.9341 20.0836 60.3479 19.59 59.9145 18.9383C59.4871 18.2865 59.2737 17.483 59.2737 16.5275C59.2737 15.7049 59.4268 15.0247 59.7325 14.4869C60.0387 13.949 60.456 13.5188 60.9852 13.1961C61.5141 12.8734 62.1102 12.6298 62.7729 12.4653C63.4421 12.2944 64.1337 12.171 64.8475 12.0951C65.7083 12.0065 66.406 11.9274 66.9414 11.8578C67.4768 11.7819 67.8656 11.668 68.1079 11.5161C68.3564 11.3579 68.481 11.1143 68.481 10.7853V10.7284C68.481 10.0134 68.2671 9.4597 67.8402 9.06742C67.4133 8.6751 66.7983 8.47896 65.9948 8.47896C65.1471 8.47896 64.4748 8.66246 63.9775 9.02943C63.4868 9.39643 63.1556 9.82987 62.9833 10.3297L59.7518 9.87416C60.0068 8.9883 60.4275 8.248 61.0137 7.6532C61.6002 7.0521 62.3171 6.60286 63.1648 6.30546C64.0129 6.00176 64.9498 5.84987 65.976 5.84987C66.6833 5.84987 67.3875 5.93215 68.0887 6.09664C68.7898 6.26117 69.4306 6.53325 70.0106 6.91289C70.5906 7.28623 71.056 7.79558 71.4064 8.44097C71.7633 9.08639 71.9418 9.89314 71.9418 10.8612V20.6182H68.6148V18.6156H68.4998C68.2894 19.0205 67.9933 19.4002 67.6106 19.7545C67.2348 20.1025 66.7598 20.3841 66.1864 20.5992C65.6191 20.8081 64.9529 20.9124 64.1879 20.9124ZM65.0868 18.3878C65.7814 18.3878 66.3837 18.2517 66.8937 17.9797C67.4037 17.7012 67.7956 17.3342 68.0698 16.8787C68.3502 16.4231 68.4902 15.9264 68.4902 15.3886V13.6707C68.3821 13.7592 68.1971 13.8415 67.936 13.9174C67.681 13.9933 67.3941 14.0598 67.0752 14.1167C66.7568 14.1737 66.441 14.2243 66.1287 14.2686C65.8164 14.3129 65.5456 14.3509 65.3164 14.3825C64.7998 14.4521 64.3379 14.566 63.9298 14.7242C63.5221 14.8824 63.2002 15.1038 62.9641 15.3886C62.7283 15.667 62.6106 16.0276 62.6106 16.4706C62.6106 17.1033 62.8433 17.581 63.3083 17.9037C63.7737 18.2264 64.3664 18.3878 65.0868 18.3878ZM76.1133 20.6182V1.1802H79.5745V8.45047H79.7179C79.8964 8.09615 80.1479 7.71964 80.4729 7.32102C80.7983 6.91606 81.2379 6.5712 81.7925 6.28648C82.3468 5.99542 83.0544 5.84987 83.9148 5.84987C85.0494 5.84987 86.0725 6.13776 86.9841 6.71358C87.9018 7.28307 88.6283 8.12776 89.1637 9.24775C89.7056 10.3614 89.9764 11.7281 89.9764 13.3479C89.9764 14.9488 89.7118 16.3092 89.1829 17.4292C88.6537 18.5491 87.9337 19.4034 87.0221 19.9918C86.1106 20.5803 85.0783 20.8745 83.9245 20.8745C83.0833 20.8745 82.3852 20.7353 81.8306 20.4569C81.276 20.1784 80.8298 19.8431 80.4921 19.4508C80.1606 19.0522 79.9025 18.6757 79.7179 18.3214H79.5171V20.6182H76.1133ZM79.5075 13.329C79.5075 14.2718 79.6414 15.0975 79.9091 15.8062C80.1829 16.5149 80.5748 17.0685 81.0848 17.4672C81.6014 17.8594 82.226 18.0556 82.9587 18.0556C83.7237 18.0556 84.3644 17.8531 84.8806 17.4481C85.3968 17.0369 85.7856 16.4769 86.0471 15.7682C86.3148 15.0532 86.4487 14.2401 86.4487 13.329C86.4487 12.4241 86.3179 11.6206 86.0564 10.9182C85.7952 10.2158 85.4064 9.66534 84.8902 9.26673C84.3737 8.86811 83.7302 8.66876 82.9587 8.66876C82.2194 8.66876 81.5918 8.86177 81.0752 9.24775C80.5591 9.63373 80.1671 10.1747 79.8995 10.8707C79.6379 11.5668 79.5075 12.3862 79.5075 13.329Z" fill="url(#paint0_linear_471_2839)"/>
<defs>
<linearGradient id="paint0_linear_471_2839" x1="0.273436" y1="20.922" x2="25.0066" y2="-30.7995" gradientUnits="userSpaceOnUse">
<stop stop-color="#5EFCE8"/>
<stop offset="1" stop-color="#CE9FFC"/>
</linearGradient>
</defs>
</svg>
